<?xml version="1.0" standalone="no"?>
<!DOCTYPE svg PUBLIC "-//W3C//DTD SVG 20010904//EN"
 "http://www.w3.org/TR/2001/REC-SVG-20010904/DTD/svg10.dtd">
<svg version="1.0" xmlns="http://www.w3.org/2000/svg"
 width="1024.000000pt" height="1024.000000pt" viewBox="0 0 1024.000000 1024.000000"
 preserveAspectRatio="xMidYMid meet">

<g transform="translate(0.000000,1024.000000) scale(0.100000,-0.100000)"
fill="#000000" stroke="none">
<path d="M5750 6656 c30 -12 75 -33 100 -46 30 -15 41 -18 32 -7 -19 23 -134
77 -162 77 -18 -1 -10 -7 30 -24z"/>
<path d="M4291 6474 c0 -11 3 -14 6 -6 3 7 2 16 -1 19 -3 4 -6 -2 -5 -13z"/>
<path d="M4301 6432 c-1 -27 66 -239 78 -247 8 -4 -49 199 -69 250 -8 19 -9
19 -9 -3z"/>
<path d="M4670 6394 c0 -17 42 -135 46 -131 2 2 -5 33 -17 68 -21 64 -29 81
-29 63z"/>
<path d="M6245 6347 c33 -30 85 -81 115 -114 30 -32 48 -50 40 -38 -26 37
-154 166 -185 187 -16 11 -3 -5 30 -35z"/>
<path d="M3817 5280 c-4 -30 -6 -95 -5 -145 1 -85 1 -82 9 45 9 143 7 192 -4
100z"/>
<path d="M4807 4895 c17 -22 53 -60 79 -85 43 -41 42 -38 -14 26 -70 81 -113
119 -65 59z"/>
<path d="M6463 4553 c32 -2 81 -2 110 0 29 2 3 3 -58 3 -60 0 -84 -1 -52 -3z"/>
<path d="M4542 4500 c0 -14 2 -19 5 -12 2 6 2 18 0 25 -3 6 -5 1 -5 -13z"/>
<path d="M4531 4414 c0 -11 3 -14 6 -6 3 7 2 16 -1 19 -3 4 -6 -2 -5 -13z"/>
<path d="M4885 4340 c11 -137 25 -171 19 -45 -3 61 -10 115 -16 120 -6 7 -7
-19 -3 -75z"/>
<path d="M6616 4383 c-6 -14 -5 -15 5 -6 7 7 10 15 7 18 -3 3 -9 -2 -12 -12z"/>
<path d="M5421 4185 c-2 -32 66 -222 75 -212 2 1 -14 52 -36 112 -21 61 -39
106 -39 100z"/>
<path d="M4300 4096 c0 -2 8 -10 18 -17 15 -13 16 -12 3 4 -13 16 -21 21 -21
13z"/>
<path d="M4946 4010 c14 -77 108 -304 148 -355 17 -22 -18 64 -61 148 -14 29
-41 95 -59 147 -19 52 -31 79 -28 60z"/>
<path d="M4595 3940 c-3 -5 -1 -10 4 -10 6 0 11 5 11 10 0 6 -2 10 -4 10 -3 0
-8 -4 -11 -10z"/>
<path d="M5896 3860 c3 -14 11 -32 16 -40 6 -10 7 -7 2 10 -3 14 -11 32 -16
40 -6 10 -7 7 -2 -10z"/>
<path d="M5115 3620 c17 -30 85 -119 97 -126 6 -4 -10 21 -37 57 -52 69 -73
94 -60 69z"/>
</g>
</svg>
